<?xml version="1.0" encoding="UTF-8"?>
<svg width="24" height="24" viewBox="0 0 24 24" fill="none" xmlns="http://www.w3.org/2000/svg">
    <path d="M12 2C6.48 2 2 6.48 2 12C2 17.52 6.48 22 12 22C17.52 22 22 17.52 22 12C22 6.48 17.52 2 12 2ZM12 20C7.59 20 4 16.41 4 12C4 7.59 7.59 4 12 4C16.41 4 20 7.59 20 12C20 16.41 16.41 20 12 20Z" fill="#795548"/>
    <path d="M15 8C13.9 8 13 8.9 13 10C13 11.1 13.9 12 15 12C16.1 12 17 11.1 17 10C17 8.9 16.1 8 15 8ZM9 8C7.9 8 7 8.9 7 10C7 11.1 7.9 12 9 12C10.1 12 11 11.1 11 10C11 8.9 10.1 8 9 8Z" fill="#795548"/>
</svg>
